# xmcd
#
# Track frame offsets:
#	150
#	723
#	1781
#	3623
#	14085
#	38514
#	65908
#	77736
#	94812
#	104712
#	129793
#	144810
#	170832
#	191881
#	202572
#	219723
#	221072
#	230586
#	233354
#	248067
#	256152
#	257081
#	285080
#	304408
#	322074
#
# Disc length: 4545 seconds
# Revision: 0
# Processed by: cddbd v1.5.2PL0 Copyright (c) Steve Scherf et al.
# Submitted via: dBpowerAMP V12.0
#
DISCID=5811bf19
DTITLE=12.6.1942 -27.9.1942 - Tagebuch CD1 
DYEAR=2009
DGENRE=
TTITLE0=001
TTITLE1=002
TTITLE2=003
TTITLE3=004
TTITLE4=005
TTITLE5=006
TTITLE6=007
TTITLE7=008
TTITLE8=009
TTITLE9=010
TTITLE10=011
TTITLE11=012
TTITLE12=013
TTITLE13=014
TTITLE14=015
TTITLE15=016
TTITLE16=017
TTITLE17=018
TTITLE18=019
TTITLE19=020
TTITLE20=021
TTITLE21=022
TTITLE22=023
TTITLE23=024
TTITLE24=025
EXTD=
EXTT0=
EXTT1=
EXTT2=
EXTT3=
EXTT4=
EXTT5=
EXTT6=
EXTT7=
EXTT8=
EXTT9=
EXTT10=
EXTT11=
EXTT12=
EXTT13=
EXTT14=
EXTT15=
EXTT16=
EXTT17=
EXTT18=
EXTT19=
EXTT20=
EXTT21=
EXTT22=
EXTT23=
EXTT24=
PLAYORDER=
